<svg xmlns="http://www.w3.org/2000/svg" viewBox="0 0 512 512">
  <defs>
    <linearGradient id="bg" x1="0" y1="0" x2="1" y2="1">
      <stop offset="0" stop-color="#14b8a6"/>
      <stop offset="1" stop-color="#0b5e58"/>
    </linearGradient>
  </defs>
  <rect width="512" height="512" rx="112" fill="url(#bg)"/>
  <!-- folha -->
  <path d="M256 96c-86 34-138 96-138 178 0 76 62 142 138 142s138-66 138-142c0-82-52-144-138-178z" fill="#ffffff" opacity=".16"/>
  <path d="M256 118c-72 30-114 84-114 154 0 65 51 122 114 122s114-57 114-122c0-70-42-124-114-154z" fill="#ffffff"/>
  <path d="M256 150v212M256 214c-26-8-44-26-52-52M256 268c26-8 44-26 52-52M256 322c-26-8-44-26-52-52" stroke="#0b5e58" stroke-width="18" stroke-linecap="round" fill="none"/>
</svg>
